FFmpeg version SVN-r25716, Copyright (c) 2000-2010 the FFmpeg developers  built on Nov 10 2010 12:23:18 with gcc 4.1.2 20080704 (Red Hat 4.1.2-48)  configuration: --enable-libmp3lame --enable-shared --disable-mmx --arch=x86_64  libavutil     50.33. 0 / 50.33. 0  libavcore      0.12. 1 /  0.12. 1  libavcodec    52.94. 4 / 52.94. 4  libavformat   52.84. 0 / 52.84. 0  libavdevice   52. 2. 2 / 52. 2. 2  libavfilter    1.59. 0 /  1.59. 0  libswscale     0.12. 0 /  0.12. 0Seems stream 0 codec frame rate differs from container frame rate: 600.00 (600/1) -> 10.00 (10/1)Input #0, mov,mp4,m4a,3gp,3g2,mj2, from '/RAID10/data/converted_video_files/12010.mov':  Duration: 00:00:06.00, start: 0.000000, bitrate: 6434 kb/s    Stream #0.0(eng): Video: svq3, yuvj420p, 530x265, 6433 kb/s, 10 fps, 10 tbr, 600 tbn, 600 tbc[buffer @ 0xc3a0300] w:530 h:265 pixfmt:yuvj420p[ffsink @ 0xc39fe40] auto-inserting filter 'auto-inserted scaler 0' between the filter 'src' and the filter 'out'[scale @ 0xc3a0160] w:530 h:265 fmt:yuvj420p -> w:530 h:265 fmt:yuv420p flags:0x4Output #0, flv, to '/RAID10/data/converted_video_files/12010.flv':  Metadata:    encoder         : Lavf52.84.0    Stream #0.0(eng): Video: flv, yuv420p, 530x265, q=2-31, 600 kb/s, 1k tbn, 24 tbcStream mapping:  Stream #0.0 -> #0.0Press [q] to stop encodingframe=   15 fps=  0 q=9.9 size=     257kB time=1.46 bitrate=1440.9kbits/s    frame=   40 fps= 39 q=9.9 size=     387kB time=3.96 bitrate= 800.9kbits/s    frame=   60 fps= 45 q=9.7 Lsize=     399kB time=5.96 bitrate= 548.8kbits/s    video:398kB audio:0kB global headers:0kB muxing overhead 0.287015%